<?xml version="1.0" encoding="utf-8"?>
<!-- Generator: Adobe Illustrator 15.0.0, SVG Export Plug-In . SVG Version: 6.00 Build 0)  -->
<!DOCTYPE svg PUBLIC "-//W3C//DTD SVG 1.1//EN" "http://www.w3.org/Graphics/SVG/1.1/DTD/svg11.dtd">
<svg version="1.1" id="Layer_1" xmlns="http://www.w3.org/2000/svg" xmlns:xlink="http://www.w3.org/1999/xlink" x="0px" y="0px"
	 width="42px" height="42px" viewBox="0 0 42 42" enable-background="new 0 0 42 42" xml:space="preserve">
	 <!--
<linearGradient id="SVGID_1_" gradientUnits="userSpaceOnUse" x1="21.0005" y1="42" x2="21.0005" y2="4.882813e-004">
	<stop  offset="0" style="stop-color:#4D4D4D"/>
	<stop  offset="1" style="stop-color:#878787"/>
</linearGradient>
<path fill="url(#SVGID_1_)" d="M42,38.811C42,40.572,40.572,42,38.811,42H3.189C1.428,42,0,40.572,0,38.811V3.189
	C0,1.428,1.428,0,3.189,0h35.621C40.572,0,42,1.428,42,3.189V38.811z"/>
	-->
<path fill="#FFFFFF" d="M20.945,35.976V21.923h-3.706v-5.061h3.706c0,0,0-2.072,0-4.322c0-3.395,2.189-6.516,7.236-6.516
	c2.041,0,3.553,0.198,3.553,0.198l-0.12,4.726c0,0-1.541-0.016-3.22-0.016c-1.82,0-2.112,0.84-2.112,2.234c0,1.104,0-2.35,0,3.696
	h5.479l-0.239,5.06h-5.239v14.053H20.945L20.945,35.976z"/>
</svg>
