<?xml version="1.0"?>
<!-- Converted with SVG Converter - Version 0.9.5 (Compiled Mon May 30 09:08:51 2011) - Copyright (C) 2011 Nokia -->
<svg xmlns="http://www.w3.org/2000/svg" width="96px" x="0px" version="1.1" y="0px" height="96px" viewBox="0 0 96 96" xmlns:xlink="http://www.w3.org/1999/xlink" baseProfile="tiny" xml:space="preserve">
 <rect width="96" fill="none" height="96" id="BOUNDING_BOX_1_"/>
 <path stroke-opacity="0.4" fill-opacity="0.4" id="SHADOW_1_" d="M88.023,49c0,29.633-10.364,40-40,40c-29.635,0-40-10.367-40-40c0-29.634,10.366-40,40-40&#xd;&#xa;&#x9;C77.659,9,88.023,19.365,88.023,49z"/>
 <linearGradient id="RED_x2F_ORANGE_1_3_" y1="8.0107" x1="47.9995" y2="87.9897" gradientUnits="userSpaceOnUse" x2="47.9995">
  <stop offset="0.0364" style="stop-color:#FF8A36"/>
  <stop offset="0.3489" style="stop-color:#EF7130"/>
  <stop offset="1" style="stop-color:#C73321"/>
 </linearGradient>
 <path fill="url(#RED_x2F_ORANGE_1_3_)" id="RED_x2F_ORANGE_1_2_" d="M8,47.988c0,29.634,10.365,40.001,40,40.001&#xd;&#xa;&#x9;c29.637,0,40-10.367,40-40.001c0-28.984-9.926-39.529-38.091-39.978h-3.817C17.928,8.459,8,19.004,8,47.988z"/>
 <linearGradient id="HIGHLIGHTS_RO1_3_" y1="8.2559" x1="47.9995" y2="87.5043" gradientUnits="userSpaceOnUse" x2="47.9995">
  <stop offset="0.0364" style="stop-color:#FFFFFF"/>
  <stop offset="0.1274" style="stop-color:#FCF7F5"/>
  <stop offset="0.2815" style="stop-color:#F5E0DB"/>
  <stop offset="0.4799" style="stop-color:#EABBAF"/>
  <stop offset="0.7147" style="stop-color:#DA8873"/>
  <stop offset="0.9778" style="stop-color:#C64828"/>
  <stop offset="1" style="stop-color:#C44221"/>
 </linearGradient>
 <path stroke-opacity="0.25" fill="url(#HIGHLIGHTS_RO1_3_)" fill-opacity="0.25" id="HIGHLIGHTS_RO1_2_" d="M48,8C18.365,8,8,18.365,8,48&#xd;&#xa;&#x9;c0,29.633,10.365,40,40,40c29.637,0,40-10.367,40-40C88,18.365,77.637,8,48,8z M48,87.023C18.842,87.023,9,77.176,9,48&#xd;&#xa;&#x9;S18.842,8.977,48,8.977S87,18.824,87,48S77.158,87.023,48,87.023z"/>
 <path stroke-opacity="0.3" fill-opacity="0.3" d="M66.66,24H27.878C25.739,24,24,25.738,24,27.878V66.66&#xd;&#xa;&#x9;c0,2.144,1.738,3.878,3.878,3.878H66.66c2.14,0,3.878-1.734,3.878-3.878V27.878C70.538,25.738,68.8,24,66.66,24z M33.696,66.66&#xd;&#xa;&#x9;c-3.208,0-5.817-2.606-5.817-5.817c0-3.212,2.609-5.817,5.817-5.817s5.817,2.605,5.817,5.817&#xd;&#xa;&#x9;C39.513,64.054,36.904,66.66,33.696,66.66z M53.734,64.073c0,1.428-1.159,2.587-2.587,2.587h-2.586&#xd;&#xa;&#x9;c-1.428,0-2.583-1.159-2.583-2.587v-1.496h-0.042c0-7.503-6.472-14.017-13.975-14.017h-1.496c-1.432,0-2.587-1.155-2.587-2.583&#xd;&#xa;&#x9;v-2.587c0-1.428,1.155-2.586,2.587-2.586h2.583c0.128,0,0.242,0.057,0.363,0.076c10.847,0.72,19.527,9.4,20.247,20.243&#xd;&#xa;&#x9;c0.02,0.123,0.076,0.238,0.076,0.365V64.073z M66.66,64.073c0,1.428-1.155,2.587-2.587,2.587H61.49&#xd;&#xa;&#x9;c-1.432,0-2.586-1.159-2.586-2.587v-1.424c0-14.746-12.268-26.973-27.015-26.973v-0.042h-1.424c-1.432,0-2.587-1.159-2.587-2.586&#xd;&#xa;&#x9;v-2.583c0-1.428,1.155-2.587,2.587-2.587h2.583c0.14,0,0.257,0.057,0.39,0.08C51.371,28.753,65.785,43.164,66.581,61.1&#xd;&#xa;&#x9;c0.022,0.133,0.079,0.25,0.079,0.391V64.073z"/>
 <path stroke-opacity="0.15" fill-opacity="0.15" d="M66.66,25.939H27.878c-2.14,0-3.878,1.738-3.878,3.878v38.781&#xd;&#xa;&#x9;c0,2.144,1.738,3.878,3.878,3.878H66.66c2.14,0,3.878-1.734,3.878-3.878V29.817C70.538,27.677,68.8,25.939,66.66,25.939z&#xd;&#xa;&#x9; M33.696,68.599c-3.208,0-5.817-2.605-5.817-5.817c0-3.211,2.609-5.817,5.817-5.817s5.817,2.606,5.817,5.817&#xd;&#xa;&#x9;C39.513,65.993,36.904,68.599,33.696,68.599z M53.734,66.012c0,1.428-1.159,2.587-2.587,2.587h-2.586&#xd;&#xa;&#x9;c-1.428,0-2.583-1.159-2.583-2.587v-1.496h-0.042c0-7.502-6.472-14.017-13.975-14.017h-1.496c-1.432,0-2.587-1.154-2.587-2.583&#xd;&#xa;&#x9;V45.33c0-1.428,1.155-2.587,2.587-2.587h2.583c0.128,0,0.242,0.057,0.363,0.076c10.847,0.72,19.527,9.4,20.247,20.243&#xd;&#xa;&#x9;c0.02,0.123,0.076,0.239,0.076,0.366V66.012z M66.66,66.012c0,1.428-1.155,2.587-2.587,2.587H61.49&#xd;&#xa;&#x9;c-1.432,0-2.586-1.159-2.586-2.587v-1.424c0-14.745-12.268-26.973-27.015-26.973v-0.042h-1.424c-1.432,0-2.587-1.159-2.587-2.587&#xd;&#xa;&#x9;v-2.583c0-1.428,1.155-2.586,2.587-2.586h2.583c0.14,0,0.257,0.057,0.39,0.08c17.933,0.795,32.347,15.206,33.143,33.142&#xd;&#xa;&#x9;c0.022,0.133,0.079,0.25,0.079,0.39V66.012z"/>
 <path fill="#FFFFFF" d="M66.66,25.939H27.878c-2.14,0-3.878,1.738-3.878,3.878v38.781c0,2.144,1.738,3.878,3.878,3.878H66.66&#xd;&#xa;&#x9;c2.14,0,3.878-1.734,3.878-3.878V29.817C70.538,27.677,68.8,25.939,66.66,25.939z M33.696,68.599c-3.208,0-5.817-2.605-5.817-5.817&#xd;&#xa;&#x9;c0-3.211,2.609-5.817,5.817-5.817s5.817,2.606,5.817,5.817C39.513,65.993,36.904,68.599,33.696,68.599z M53.734,66.012&#xd;&#xa;&#x9;c0,1.428-1.159,2.587-2.587,2.587h-2.586c-1.428,0-2.583-1.159-2.583-2.587v-1.496h-0.042c0-7.502-6.472-14.017-13.975-14.017&#xd;&#xa;&#x9;h-1.496c-1.432,0-2.587-1.154-2.587-2.583V45.33c0-1.428,1.155-2.587,2.587-2.587h2.583c0.128,0,0.242,0.057,0.363,0.076&#xd;&#xa;&#x9;c10.847,0.72,19.527,9.4,20.247,20.243c0.02,0.123,0.076,0.239,0.076,0.366V66.012z M66.66,66.012c0,1.428-1.155,2.587-2.587,2.587&#xd;&#xa;&#x9;H61.49c-1.432,0-2.586-1.159-2.586-2.587v-1.424c0-14.745-12.268-26.973-27.015-26.973v-0.042h-1.424&#xd;&#xa;&#x9;c-1.432,0-2.587-1.159-2.587-2.587v-2.583c0-1.428,1.155-2.586,2.587-2.586h2.583c0.14,0,0.257,0.057,0.39,0.08&#xd;&#xa;&#x9;c17.933,0.795,32.347,15.206,33.143,33.142c0.022,0.133,0.079,0.25,0.079,0.39V66.012z"/>
</svg>
