<?xml version="1.0" encoding="utf-8"?>
<!-- Generator: Adobe Illustrator 15.0.0, SVG Export Plug-In . SVG Version: 6.00 Build 0)  -->
<!DOCTYPE svg PUBLIC "-//W3C//DTD SVG 1.1//EN" "http://www.w3.org/Graphics/SVG/1.1/DTD/svg11.dtd">
<svg version="1.1" id="Layer_1" xmlns="http://www.w3.org/2000/svg" xmlns:xlink="http://www.w3.org/1999/xlink" x="0px" y="0px"
	 width="42px" height="42px" viewBox="0 0 42 42" enable-background="new 0 0 42 42" xml:space="preserve">
<path fill="#FFFFFF" d="M28.703,6.756c-0.311,0.079-0.832,0.164-1.564,0.257c-1.469,0.171-2.373,0.336-2.703,0.491
	C24.24,7.58,24.09,7.713,24,7.9c-0.162,0.28-0.25,0.8-0.281,1.563L23.6,12.472l0.098,10.381v4.105
	c-0.039,1.293-0.051,2.172-0.051,2.637c0,1.744,0.041,2.854,0.125,3.336c0.092,0.482,0.236,0.83,0.445,1.039
	c0.207,0.211,0.557,0.375,1.039,0.502c0.711,0.17,1.273,0.264,1.676,0.281c0.875,0.029,1.426,0.152,1.658,0.371
	c0.047,0.203,0.068,0.373,0.068,0.512v0.186c-1.416,0.049-2.455,0.07-3.133,0.07c-0.383,0-1.076-0.021-2.076-0.07l-3.217,0.049
	l-5.492-0.023h-0.441l-0.049-0.699c0.35-0.141,0.693-0.223,1.053-0.258c2.375-0.154,3.738-0.439,4.08-0.848
	c0.342-0.416,0.512-2.408,0.512-5.988l-0.02-2.447v-2.566l-0.096-2.826l0.047-1.651l-0.027-1.825v-2.145l-0.045-0.954l0.045-1.216
	c0.021-0.279,0.027-0.604,0.027-0.979c0-0.977-0.047-2.016-0.143-3.102c-0.063-0.217-0.146-0.431-0.258-0.631
	c-0.576-0.296-1.504-0.493-2.783-0.591c-1.279-0.105-2.01-0.216-2.182-0.341C14.34,6.688,14.268,6.45,14.25,6.06h1.961l6.191,0.137
	c1.586,0,3.703-0.044,6.348-0.137C28.75,6.305,28.738,6.539,28.703,6.756z"/>
</svg>
