<?xml version="1.0"?>
<!-- Converted with SVG Converter - Version 0.9.5 (Compiled Mon May 30 09:08:51 2011) - Copyright (C) 2011 Nokia -->
<svg xmlns="http://www.w3.org/2000/svg" width="67px" x="0px" version="1.1" y="0px" height="57px" viewBox="0 0 67 57" xmlns:xlink="http://www.w3.org/1999/xlink" baseProfile="tiny" xml:space="preserve">
 <rect width="67" fill="none" height="57"/>
 <path stroke-opacity="0.15" fill-opacity="0.15" d="M44.779,44.276c-1.639,0-3.395-0.991-4.173-2.356l-3.283-4.656h-1.901c-0.379,0-0.725-0.214-0.895-0.553&#xd;&#xa;&#x9;l-0.935-1.869H14.842c-0.266,0-0.52-0.105-0.707-0.293l-4.842-4.842c-0.391-0.391-0.391-1.023,0-1.414l4.842-4.842&#xd;&#xa;&#x9;c0.188-0.188,0.441-0.293,0.707-0.293h1.211c0.265,0,0.52,0.105,0.707,0.293l0.918,0.917h0.383l0.916-0.917&#xd;&#xa;&#x9;c0.188-0.188,0.441-0.293,0.707-0.293h1.211c0.265,0,0.52,0.105,0.707,0.293l0.918,0.917h1.594l0.916-0.917&#xd;&#xa;&#x9;c0.188-0.188,0.441-0.293,0.707-0.293h3.633c0.266,0,0.52,0.105,0.707,0.293l0.916,0.917h0.383l0.918-0.917&#xd;&#xa;&#x9;c0.188-0.188,0.442-0.293,0.707-0.293h0.593l0.935-1.869c0.17-0.339,0.516-0.553,0.895-0.553h1.901l3.334-4.735&#xd;&#xa;&#x9;c0.728-1.286,2.481-2.276,4.121-2.276c0.144,0,0.285,0.007,0.424,0.022l6.08,0.676c1.57,0.174,3.382,0.933,4.214,1.765&#xd;&#xa;&#x9;C56.354,17.045,57,18.91,57,20.526v16.947c0,1.616-0.646,3.481-1.504,4.339c-0.832,0.832-2.644,1.591-4.214,1.765l-6.08,0.677&#xd;&#xa;&#x9;C45.063,44.269,44.923,44.276,44.779,44.276C44.78,44.276,44.78,44.276,44.779,44.276z M49.342,21.526&#xd;&#xa;&#x9;c-0.449,0-0.814,0.366-0.814,0.815v13.316c0,0.449,0.365,0.815,0.814,0.815c0.45,0,0.816-0.366,0.816-0.815V22.342&#xd;&#xa;&#x9;C50.158,21.893,49.792,21.526,49.342,21.526L49.342,21.526z"/>
 <path stroke-opacity="0.3" fill-opacity="0.3" d="M54.789,17.895c-0.665-0.665-2.293-1.331-3.617-1.478l-6.08-0.676c-1.324-0.147-2.958,0.679-3.617,1.835&#xd;&#xa;&#x9;l-3.633,5.16h-2.42l-1.211,2.422H33l-1.211,1.21h-1.211l-1.209-1.21h-3.633l-1.209,1.21h-2.422l-1.211-1.21h-1.211l-1.209,1.21&#xd;&#xa;&#x9;h-1.211l-1.211-1.21h-1.211L10,30l4.842,4.842h19.369l1.211,2.422h2.42l3.633,5.161c0.659,1.155,2.293,1.981,3.617,1.835l6.08-0.677&#xd;&#xa;&#x9;c1.324-0.146,2.952-0.813,3.617-1.478C55.455,41.439,56,39.805,56,38.474V21.526C56,20.195,55.455,18.561,54.789,17.895z&#xd;&#xa;&#x9; M51.158,36.658c0,1.002-0.814,1.815-1.816,1.815s-1.814-0.813-1.814-1.815V23.342c0-1.002,0.813-1.815,1.814-1.815&#xd;&#xa;&#x9;s1.816,0.813,1.816,1.815V36.658z"/>
 <linearGradient id="SVGID_1_" y1="43.2764" x1="33.0005" y2="14.7246" gradientUnits="userSpaceOnUse" x2="33.0005">
  <stop offset="0" style="stop-color:#D0CBC5"/>
  <stop offset="0.5031" style="stop-color:#FAFCEF"/>
  <stop offset="0.9693" style="stop-color:#FFFFFF"/>
 </linearGradient>
 <path fill="url(#SVGID_1_)" d="M54.789,16.895c-0.665-0.665-2.293-1.331-3.617-1.478l-6.08-0.676&#xd;&#xa;&#x9;c-1.324-0.147-2.958,0.679-3.617,1.835l-3.633,5.16h-2.42l-1.211,2.422H33l-1.211,1.21h-1.211l-1.209-1.21h-3.633l-1.209,1.21&#xd;&#xa;&#x9;h-2.422l-1.211-1.21h-1.211l-1.209,1.21h-1.211l-1.211-1.21h-1.211L10,29l4.842,4.842h19.369l1.211,2.422h2.42l3.633,5.161&#xd;&#xa;&#x9;c0.659,1.155,2.293,1.981,3.617,1.835l6.08-0.677c1.324-0.146,2.952-0.813,3.617-1.478C55.455,40.439,56,38.805,56,37.474V20.526&#xd;&#xa;&#x9;C56,19.195,55.455,17.561,54.789,16.895z M51.158,35.658c0,1.002-0.814,1.815-1.816,1.815s-1.814-0.813-1.814-1.815V22.342&#xd;&#xa;&#x9;c0-1.002,0.813-1.815,1.814-1.815s1.816,0.813,1.816,1.815V35.658z"/>
 <path fill="#FFFFFF" d="M49.342,37.474c-1.002,0-1.814-0.813-1.814-1.815v1c0,1.002,0.813,1.815,1.814,1.815&#xd;&#xa;&#x9;s1.816-0.813,1.816-1.815v-1C51.158,36.66,50.344,37.474,49.342,37.474z M54.789,16.895c-0.665-0.665-2.293-1.331-3.617-1.478&#xd;&#xa;&#x9;l-6.08-0.676c-1.324-0.147-2.958,0.679-3.617,1.835l-3.633,5.16h-2.42l-1.211,2.422H33l-1.211,1.21h-1.211l-1.209-1.21h-3.633&#xd;&#xa;&#x9;l-1.209,1.21h-2.422l-1.211-1.21h-1.211l-1.209,1.21h-1.211l-1.211-1.21h-1.211L10,29l0.5,0.5l4.342-4.342h1.211l1.211,1.21h1.211&#xd;&#xa;&#x9;l1.209-1.21h1.211l1.211,1.21h2.422l1.209-1.21h3.633l1.209,1.21h1.211L33,25.158h1.211l1.211-2.422h2.42l3.633-5.16&#xd;&#xa;&#x9;c0.659-1.156,2.293-1.982,3.617-1.835l6.08,0.676c1.324,0.146,2.952,0.813,3.617,1.478C55.455,18.561,56,20.195,56,21.526v-1&#xd;&#xa;&#x9;C56,19.195,55.455,17.561,54.789,16.895z"/>
</svg>
