<?xml version="1.0"?>
<!-- Converted with SVG Converter - Version 0.9.5 (Compiled Mon May 30 09:08:51 2011) - Copyright (C) 2011 Nokia -->
<svg xmlns="http://www.w3.org/2000/svg" width="67px" x="0px" version="1.1" y="0px" height="57px" viewBox="0 0 67 57" xmlns:xlink="http://www.w3.org/1999/xlink" baseProfile="tiny" xml:space="preserve">
 <g id="DO_NOT_EDIT_-_BOUNDING_BOX">
  <rect width="67" fill="none" height="57" id="BOUNDING_BOX"/>
 </g>
 <g id="PLACE_YOUR_GRAPHIC_HERE">
  <path stroke-opacity="0.3" fill-opacity="0.3" d="M52.001,7H15c-0.55,0-1,0.45-1,1v5c0,0.55,0.45,1,1,1h37c0.55,0,1-0.45,1-1V8C53.001,7.45,52.551,7,52.001,7&#xd;&#xa;&#x9;&#x9;z M38.999,18c0-0.55-0.45-1-1-1H29c-0.55,0-1,0.45-1,1v12h-6.881l6.192,10.834L33.5,51.667l6.191-10.833L45.882,30h-6.883V18z"/>
  <path stroke-opacity="0.15" fill-opacity="0.15" d="M33.5,51.667c-0.359,0-0.69-0.192-0.868-0.504L20.251,29.496c-0.177-0.31-0.176-0.689,0.003-0.998&#xd;&#xa;&#x9;&#x9;C20.433,28.19,20.763,28,21.119,28H27V17c0-1.103,0.897-2,2-2h8.999c1.103,0,2,0.897,2,2v11h5.883c0.356,0,0.686,0.19,0.865,0.498&#xd;&#xa;&#x9;&#x9;c0.179,0.308,0.18,0.688,0.003,0.998L34.368,51.163C34.19,51.475,33.859,51.667,33.5,51.667L33.5,51.667z M15,14&#xd;&#xa;&#x9;&#x9;c-1.103,0-2-0.897-2-2V7c0-1.103,0.897-2,2-2h37c1.103,0,2,0.897,2,2v5c0,1.103-0.897,2-2,2H15z"/>
  <path stroke-opacity="0.15" fill-opacity="0.15" d="M52.001,6H15c-0.55,0-1,0.45-1,1v5c0,0.55,0.45,1,1,1h37c0.55,0,1-0.45,1-1V7&#xd;&#xa;&#x9;&#x9;C53.001,6.45,52.551,6,52.001,6z M38.999,17c0-0.55-0.45-1-1-1H29c-0.55,0-1,0.45-1,1v12h-6.881l6.192,10.834L33.5,50.667&#xd;&#xa;&#x9;&#x9;l6.191-10.833L45.882,29h-6.883V17z"/>
  <linearGradient id="SVGID_1_" y1="50.667" x1="33.501" y2="6.0005" gradientUnits="userSpaceOnUse" x2="33.501">
   <stop offset="0" style="stop-color:#D0CBC5"/>
   <stop offset="0.5031" style="stop-color:#FAFCEF"/>
   <stop offset="0.9693" style="stop-color:#FFFFFF"/>
  </linearGradient>
  <path fill="url(#SVGID_1_)" d="M52.001,6H15c-0.55,0-1,0.45-1,1v5c0,0.55,0.45,1,1,1h37c0.55,0,1-0.45,1-1V7&#xd;&#xa;&#x9;&#x9;C53.001,6.45,52.551,6,52.001,6z M38.999,17c0-0.55-0.45-1-1-1H29c-0.55,0-1,0.45-1,1v12h-6.881l6.192,10.834L33.5,50.667&#xd;&#xa;&#x9;&#x9;l6.191-10.833L45.882,29h-6.883V17z"/>
  <path fill="#FFFFFF" d="M21.691,30H28v-1h-6.881L21.691,30z M52.001,6H15c-0.55,0-1,0.45-1,1v1c0-0.55,0.45-1,1-1h37&#xd;&#xa;&#x9;&#x9;c0.55,0,1,0.45,1,1V7C53.001,6.45,52.551,6,52.001,6z M38.999,17c0-0.55-0.45-1-1-1H29c-0.55,0-1,0.45-1,1v1c0-0.55,0.45-1,1-1&#xd;&#xa;&#x9;&#x9;h8.999c0.55,0,1,0.45,1,1V17z M38.999,30h6.312l0.571-1h-6.883V30z"/>
 </g>
 <g id="DO_NOT_EDIT_-_FOCAL_ZONE_GUIDES"/>
</svg>
