<?xml version="1.0"?>
<!-- Converted with SVG Converter - Version 0.9.5 (Compiled Mon May 30 09:08:51 2011) - Copyright (C) 2011 Nokia -->
<svg xmlns="http://www.w3.org/2000/svg" width="67px" x="0px" version="1.1" y="0px" height="57px" viewBox="0 0 67 57" xmlns:xlink="http://www.w3.org/1999/xlink" baseProfile="tiny" id="Ebene_1" xml:space="preserve">
 <rect width="67" fill="none" height="57"/>
 <path stroke-opacity="0.3" fill-opacity="0.3" d="M53.625,15.143H27.598l-3.584-3.768C23.01,10.032,21.178,10,21.178,10h-8.05&#xd;&#xa;&#x9;c-2.234,0-2.155,1.576-2.115,2.006C11.016,12.049,11,46.762,11,46.762c0,0.756,0.619,1.375,1.375,1.375h41.25&#xd;&#xa;&#x9;c0.757,0,1.375-0.619,1.375-1.375V16.518C55,15.762,54.382,15.143,53.625,15.143z"/>
 <path stroke-opacity="0.15" fill-opacity="0.15" d="M12.375,48.13c-1.31,0-2.375-1.065-2.375-2.375&#xd;&#xa;&#x9;c0-0.344,0.016-34.348,0.013-34.744c-0.099-1.024,0.299-1.717,0.649-2.103c0.553-0.606,1.383-0.914,2.466-0.914h8.05&#xd;&#xa;&#x9;c0.111,0.002,2.31,0.06,3.599,1.726l3.25,3.417h25.599c1.31,0,2.375,1.065,2.375,2.375v30.243c0,1.31-1.065,2.375-2.375,2.375&#xd;&#xa;&#x9;H12.375z"/>
 <linearGradient gradientTransform="matrix(1 0 0 -1 -137.48 -203.0195)" id="SVGID_1_" y1="-250.1494" x1="170.4805" y2="-212.0137" gradientUnits="userSpaceOnUse" x2="170.4805">
  <stop offset="0" style="stop-color:#D0CBC5"/>
  <stop offset="0.5031" style="stop-color:#FAFCEF"/>
  <stop offset="0.9693" style="stop-color:#FFFFFF"/>
 </linearGradient>
 <path fill="url(#SVGID_1_)" d="M53.625,14.137H27.598l-3.584-3.768c-1.004-1.343-2.836-1.375-2.836-1.375h-8.05&#xd;&#xa;&#x9;c-2.234,0-2.155,1.576-2.115,2.006C11.016,11.043,11,45.755,11,45.755c0,0.757,0.619,1.375,1.375,1.375h41.25&#xd;&#xa;&#x9;c0.757,0,1.375-0.618,1.375-1.375V15.512C55,14.756,54.382,14.137,53.625,14.137z"/>
 <path fill="#FFFFFF" d="M53.625,14.137H27.598l-3.584-3.768c-1.004-1.343-2.836-1.375-2.836-1.375h-8.05&#xd;&#xa;&#x9;c-2.234,0-2.155,1.576-2.115,2.006v0.5c0.067-0.624,0.444-1.506,2.115-1.506h8.05c0,0,1.832,0.032,2.836,1.375l3.584,3.768h26.027&#xd;&#xa;&#x9;c0.757,0,1.375,0.619,1.375,1.375v-1C55,14.756,54.382,14.137,53.625,14.137z"/>
</svg>
