<?xml version="1.0"?>
<!-- Converted with SVG Converter - Version 0.9.5 (Compiled Mon May 30 09:08:51 2011) - Copyright (C) 2011 Nokia -->
<svg xmlns="http://www.w3.org/2000/svg" width="67px" x="0px" version="1.1" y="0px" height="57px" viewBox="0 0 67 57" xmlns:xlink="http://www.w3.org/1999/xlink" baseProfile="tiny" xml:space="preserve">
 <rect width="67" fill="none" height="57"/>
 <path stroke-opacity="0.15" fill-opacity="0.15" d="M16.689,49.501c-2.334,0-4.232-1.898-4.232-4.232v-33.62c0-2.334,1.898-4.232,4.232-4.232h33.622&#xd;&#xa;&#x9;c2.332,0,4.23,1.898,4.23,4.232v33.62c0,1.125-0.439,2.188-1.24,2.988c-0.801,0.803-1.863,1.244-2.99,1.244H16.689z M21.883,37.826&#xd;&#xa;&#x9;c-1.178,0-2.137,0.957-2.137,2.133c0,1.178,0.959,2.137,2.137,2.137s2.137-0.959,2.137-2.137&#xd;&#xa;&#x9;C24.019,38.783,23.06,37.826,21.883,37.826L21.883,37.826z M34.958,42.095c-0.498-8.16-7.049-14.713-15.209-15.211v2.707&#xd;&#xa;&#x9;c6.67,0.489,12.014,5.832,12.502,12.504H34.958z M45.94,42.093C45.424,27.882,33.958,16.417,19.748,15.9v2.703&#xd;&#xa;&#x9;c12.721,0.513,22.975,10.769,23.487,23.49H45.94z"/>
 <path stroke-opacity="0.3" fill-opacity="0.3" d="M53.542,46.269v-33.62c0-1.777-1.455-3.232-3.23-3.232H16.689c-1.777,0-3.232,1.455-3.232,3.232v33.62&#xd;&#xa;&#x9;c0,1.777,1.455,3.232,3.232,3.232h33.622c1.777,0,3.232-1.455,3.232-3.232H53.542z M21.883,44.095c-1.734,0-3.137-1.402-3.137-3.137&#xd;&#xa;&#x9;c0-1.729,1.402-3.133,3.137-3.133c1.73,0,3.135,1.404,3.137,3.133C25.02,42.693,23.613,44.095,21.883,44.095z M31.288,44.095&#xd;&#xa;&#x9;c0-6.928-5.613-12.541-12.54-12.541v-4.699c9.522,0,17.241,7.719,17.241,17.24H31.288z M42.256,44.093&#xd;&#xa;&#x9;c0-12.984-10.523-23.51-23.508-23.51v-4.701c15.583,0,28.211,12.631,28.211,28.211H42.256z"/>
 <linearGradient id="SVGID_1_" y1="48.5015" x1="33.5005" y2="8.4175" gradientUnits="userSpaceOnUse" x2="33.5005">
  <stop offset="0" style="stop-color:#D0CBC5"/>
  <stop offset="0.5031" style="stop-color:#FAFCEF"/>
  <stop offset="0.9693" style="stop-color:#FFFFFF"/>
 </linearGradient>
 <path fill="url(#SVGID_1_)" d="M53.542,45.269v-33.62c0-1.777-1.455-3.232-3.23-3.232H16.689c-1.777,0-3.232,1.455-3.232,3.232&#xd;&#xa;&#x9;v33.62c0,1.777,1.455,3.232,3.232,3.232h33.622c1.777,0,3.232-1.455,3.232-3.232H53.542z M21.883,43.095&#xd;&#xa;&#x9;c-1.734,0-3.137-1.402-3.137-3.137c0-1.729,1.402-3.133,3.137-3.133c1.73,0,3.135,1.404,3.137,3.133&#xd;&#xa;&#x9;C25.02,41.693,23.613,43.095,21.883,43.095z M31.288,43.095c0-6.928-5.613-12.541-12.54-12.541v-4.699&#xd;&#xa;&#x9;c9.522,0,17.241,7.719,17.241,17.24H31.288z M42.256,43.093c0-12.984-10.523-23.51-23.508-23.51v-4.701&#xd;&#xa;&#x9;c15.583,0,28.211,12.631,28.211,28.211H42.256z"/>
 <path fill="#FFFFFF" d="M21.883,43.095c-1.563,0-2.846-1.143-3.086-2.637c-0.027,0.164-0.051,0.328-0.051,0.5&#xd;&#xa;&#x9;c0,1.734,1.402,3.137,3.137,3.137c1.73,0,3.137-1.402,3.137-3.137c0-0.17-0.025-0.334-0.051-0.498&#xd;&#xa;&#x9;C24.727,41.955,23.441,43.095,21.883,43.095z M42.256,43.093c0-12.984-10.523-23.51-23.508-23.51v1&#xd;&#xa;&#x9;c12.985,0,23.508,10.526,23.508,23.51h4.703c0-0.336-0.014-0.668-0.025-1H42.256z M31.288,43.095c0-6.928-5.613-12.541-12.54-12.541&#xd;&#xa;&#x9;v1c6.926,0,12.54,5.613,12.54,12.541h4.701c0-0.338-0.031-0.668-0.051-1H31.288z M53.542,45.269v0.02&#xd;&#xa;&#x9;c0-0.008,0.002-0.014,0.002-0.02H53.542z M53.542,11.649c0-1.777-1.455-3.232-3.23-3.232H16.689c-1.777,0-3.232,1.455-3.232,3.232v1&#xd;&#xa;&#x9;c0-1.777,1.455-3.232,3.232-3.232h33.622c1.775,0,3.23,1.455,3.23,3.232V11.649z"/>
</svg>
