<?xml version="1.0"?>
<!-- Converted with SVG Converter - Version 0.9.5 (Compiled Mon May 30 09:08:51 2011) - Copyright (C) 2011 Nokia -->
<svg xmlns="http://www.w3.org/2000/svg" width="67px" x="0px" version="1.1" y="0px" height="57px" viewBox="0 0 67 57" xmlns:xlink="http://www.w3.org/1999/xlink" baseProfile="tiny" xml:space="preserve">
 <rect width="67" fill="none" height="57"/>
 <path stroke-opacity="0.15" fill-opacity="0.15" d="M38.535,51.327c-0.553,0-1-0.448-1-1V40.105h-6.979v10.222c0,0.552-0.447,1-1,1h-8.979&#xd;&#xa;&#x9;c-1.788,0-3.243-1.456-3.243-3.245V33.995c0-0.267,0.106-0.521,0.295-0.709l15.701-15.621c0.188-0.187,0.441-0.291,0.705-0.291&#xd;&#xa;&#x9;c0.007,0,0.014,0,0.021,0c0.052,0.001,0.103,0.006,0.152,0.015c0.201,0.031,0.395,0.123,0.549,0.276l15.706,15.639&#xd;&#xa;&#x9;c0.188,0.188,0.294,0.443,0.294,0.709v14.068c0,1.789-1.455,3.245-3.244,3.245H38.535z M12.782,36.959&#xd;&#xa;&#x9;c-0.257,0-0.513-0.098-0.708-0.294l-3.426-3.436c-0.188-0.188-0.292-0.442-0.292-0.708c0-0.265,0.106-0.52,0.294-0.706l8.994-8.966&#xd;&#xa;&#x9;V12.773c0-0.552,0.447-1,1-1h5.066c0.553,0,1,0.448,1,1v3.032l8.635-8.607c0.195-0.194,0.45-0.292,0.706-0.292&#xd;&#xa;&#x9;s0.511,0.097,0.706,0.292l24.684,24.605c0.188,0.187,0.294,0.441,0.294,0.706c0,0.266-0.104,0.52-0.292,0.708l-3.435,3.445&#xd;&#xa;&#x9;c-0.188,0.188-0.441,0.294-0.706,0.294c-0.001,0-0.001,0-0.002,0c-0.265,0-0.519-0.105-0.706-0.292L34.044,16.178L13.488,36.667&#xd;&#xa;&#x9;C13.293,36.861,13.038,36.959,12.782,36.959L12.782,36.959z"/>
 <path stroke-opacity="0.3" fill-opacity="0.3" d="M34.052,8.907L23.711,19.214v-5.441h-5.066v10.491c-3.166,3.156-9.288,9.26-9.288,9.26l3.426,3.436&#xd;&#xa;&#x9;l21.254-21.186l0.006,0.007v-0.371h0.003v0.371l0.007-0.007l21.249,21.184l3.435-3.445L34.052,8.907z M34.045,19.38h-0.003&#xd;&#xa;&#x9;l-0.006-0.006L18.335,34.995v14.087c0,1.235,1.011,2.245,2.243,2.245h8.979V40.105h8.979v11.222h8.979&#xd;&#xa;&#x9;c1.232,0,2.244-1.01,2.244-2.245V35.014l-15.706-15.64L34.045,19.38z"/>
 <linearGradient id="SVGID_1_" y1="50.3271" x1="34.0459" y2="7.9072" gradientUnits="userSpaceOnUse" x2="34.0459">
  <stop offset="0" style="stop-color:#D0CBC5"/>
  <stop offset="0.5031" style="stop-color:#FAFCEF"/>
  <stop offset="0.9693" style="stop-color:#FFFFFF"/>
 </linearGradient>
 <path fill="url(#SVGID_1_)" d="M34.052,7.907L23.711,18.214v-5.441h-5.066v10.491c-3.166,3.156-9.288,9.26-9.288,9.26l3.426,3.436&#xd;&#xa;&#x9;l21.254-21.186l0.006,0.007v-0.371h0.003v0.371l0.007-0.007l21.249,21.184l3.435-3.445L34.052,7.907z M34.045,18.38h-0.003&#xd;&#xa;&#x9;l-0.006-0.006L18.335,33.995v14.087c0,1.235,1.011,2.245,2.243,2.245h8.979V39.105h8.979v11.222h8.979&#xd;&#xa;&#x9;c1.232,0,2.244-1.01,2.244-2.245V34.014l-15.706-15.64L34.045,18.38z"/>
 <path fill="#FFFFFF" d="M23.711,12.773h-5.066v1h5.066V12.773z M18.645,23.264c-3.166,3.156-9.288,9.26-9.288,9.26l0.5,0.502&#xd;&#xa;&#x9;c1.513-1.509,6.162-6.144,8.788-8.762V23.264z M34.052,7.907L23.711,18.214v1L34.052,8.907l24.184,24.107l0.5-0.502L34.052,7.907z&#xd;&#xa;&#x9; M34.045,18.38h-0.003l-0.006-0.006L18.335,33.995v1l15.701-15.621l0.006,0.006h0.003l0.007-0.006l15.706,15.64v-1l-15.706-15.64&#xd;&#xa;&#x9;L34.045,18.38z"/>
</svg>
