<?xml version="1.0" encoding="utf-8"?>
<!-- Generator: Adobe Illustrator 15.0.0, SVG Export Plug-In . SVG Version: 6.00 Build 0)  -->
<!DOCTYPE svg PUBLIC "-//W3C//DTD SVG 1.1//EN" "http://www.w3.org/Graphics/SVG/1.1/DTD/svg11.dtd">
<svg version="1.1" id="Layer_1" xmlns="http://www.w3.org/2000/svg" xmlns:xlink="http://www.w3.org/1999/xlink" x="0px" y="0px"
	 width="48px" height="48px" viewBox="0 0 48 48" enable-background="new 0 0 48 48" xml:space="preserve">
<polygon fill="#FFFFFF" points="26.813,5.313 26.25,12.448 19.679,22.749 17.25,24.813 17.25,39 20.188,41.063 38,41 42.188,39.25 
	45.475,28.98 46,23.326 43.313,19.856 31.625,19.856 33.188,14.313 30.875,6.75 "/>
<path d="M16.25,38.131l1.544-0.467c0.801,2.562,2.588,2.799,3.739,2.845l0,0c0.463,0,0.73-0.057,0.73-0.057l0,0l0.08-0.02h16.641
	c2.719-0.554,2.832-1.892,2.908-2.868l0,0c0-0.454-0.076-0.73-0.076-0.73l0,0l-0.197-0.707l0.684-0.264
	c1.033-0.343,1.374-1.774,1.367-3.024l0,0c0-0.747-0.097-1.287-0.097-1.289l0,0l-0.106-0.557l0.494-0.289
	c0.873-0.515,1.083-1.261,1.1-2.129l0,0c0.007-0.979-0.356-1.878-0.359-1.878l0,0l-0.16-0.38l0.217-0.351
	c0.517-0.842,0.689-1.516,0.689-2.058l0,0c0.004-1.042-0.653-1.829-1.45-2.413l0,0c-0.597-0.44-1.197-0.697-1.44-0.791l0,0H30.514
	l0.403-1.09c-0.01-0.007,1.197-3.235,1.19-6.622l0,0c0.004-1.751-0.323-3.505-1.203-4.853l0,0c-1.135-1.706-1.988-1.999-2.528-2.002
	l0,0c-0.417-0.003-0.808,0.193-1.107,0.425l0,0c-0.103,0.078-0.187,0.153-0.253,0.22l0,0c0.116,1.072,0.16,1.983,0.16,2.748l0,0
	c0.003,2.256-0.4,3.292-0.557,3.608l0,0c-3.249,8.581-8.942,11.276-9.062,11.326l0,0l-0.677-1.467
	c-0.003-0.002,0.277-0.125,0.804-0.472l0,0c0.53-0.348,1.277-0.897,2.125-1.704l0,0c1.691-1.609,3.782-4.235,5.306-8.291l0,0
	l0.03-0.072l0.033-0.06c-0.004-0.003,0,0,0.02-0.053l0,0c0.037-0.079,0.088-0.22,0.141-0.444l0,0
	c0.106-0.443,0.227-1.197,0.227-2.371l0,0c0-0.777-0.053-1.742-0.2-2.916l0,0l-0.033-0.319l0.19-0.255
	c0.06-0.05,1.01-1.474,2.854-1.521l0,0c1.257-0.003,2.621,0.791,3.882,2.738l0,0c1.124,1.736,1.464,3.797,1.471,5.734l0,0
	c-0.007,2.475-0.563,4.792-0.94,6.096l0,0l9.991,0.039c0,0-0.39-0.023,0.17,0c0.564,0.025,3.949,0.782,4.112,4.78l0,0
	c0.003,0.797-0.229,1.656-0.729,2.565l0,0c0.143,0.441,0.343,1.211,0.35,2.101l0,0c0.01,1.027-0.324,2.336-1.447,3.22l0,0
	c0.026,0.271,0.053,0.63,0.053,1.044l0,0c-0.01,1.24-0.223,3.194-1.801,4.222l0,0c0.018,0.147,0.027,0.317,0.027,0.504l0,0
	c0.073,1.394-0.814,3.941-4.326,4.476l0,0l-0.066,0.01H22.506c-0.16,0.026-0.507,0.077-0.974,0.077l0,0
	c-0.05,0.003-0.097,0.003-0.144,0.003l0,0C19.918,42.13,17.214,41.42,16.25,38.131L16.25,38.131z"/>
<path fill="#FFFFFF" d="M17.414,41.046c0,0.824-0.67,1.497-1.498,1.497H4.361c-0.827,0-1.497-0.673-1.497-1.497V22.159
	c0-0.827,0.67-1.498,1.497-1.498h11.556c0.827,0,1.498,0.67,1.498,1.498V41.046z"/>
<path d="M4.361,43.351c-1.277,0-2.308-1.034-2.308-2.305l0,0V22.157c0-1.274,1.03-2.301,2.308-2.301l0,0h11.556
	c1.271,0,2.301,1.03,2.305,2.301l0,0v18.889h-0.003c0,1.271-1.031,2.305-2.301,2.305l0,0H4.361L4.361,43.351z M3.667,22.157v18.889
	c0,0.377,0.31,0.688,0.693,0.688l0,0h11.556c0.38,0,0.687-0.311,0.69-0.688l0,0h-0.003l0.003-18.889
	c-0.003-0.378-0.31-0.687-0.69-0.687l0,0H4.361C3.978,21.47,3.667,21.778,3.667,22.157L3.667,22.157z"/>
<path d="M12.104,37.208c0,0.6,0.484,1.083,1.084,1.083c0.597,0,1.081-0.483,1.081-1.083c0-0.594-0.483-1.081-1.081-1.081
	C12.588,36.127,12.104,36.614,12.104,37.208z"/>
</svg>
