<?xml version="1.0"?>
<!-- Converted with SVG Converter - Version 0.9.5 (Compiled Mon May 30 09:08:51 2011) - Copyright (C) 2011 Nokia -->
<svg xmlns="http://www.w3.org/2000/svg" width="67px" x="0px" version="1.1" y="0px" height="57px" viewBox="0 0 67 57" xmlns:xlink="http://www.w3.org/1999/xlink" baseProfile="tiny" xml:space="preserve">
 <rect width="67" fill="none" height="57" id="BOUNDING_BOX_1_"/>
 <path stroke-opacity="0.3" fill-opacity="0.3" d="M15,19.5h37c1.925,0,3.5-1.576,3.5-3.5c0-1.926-1.575-3.5-3.5-3.5H15c-1.925,0-3.5,1.574-3.5,3.5&#xd;&#xa;&#x9;C11.5,17.924,13.075,19.5,15,19.5z M52,38.5H15c-1.925,0-3.5,1.574-3.5,3.5c0,1.924,1.575,3.5,3.5,3.5h37c1.925,0,3.5-1.576,3.5-3.5&#xd;&#xa;&#x9;C55.5,40.074,53.925,38.5,52,38.5z M52,25.5H15c-1.925,0-3.5,1.574-3.5,3.5c0,1.924,1.575,3.5,3.5,3.5h37c1.925,0,3.5-1.576,3.5-3.5&#xd;&#xa;&#x9;C55.5,27.074,53.925,25.5,52,25.5z"/>
 <path stroke-opacity="0.15" fill-opacity="0.15" d="M15,45.5c-2.481,0-4.5-2.019-4.5-4.5s2.019-4.5,4.5-4.5h37c2.481,0,4.5,2.019,4.5,4.5s-2.019,4.5-4.5,4.5H15&#xd;&#xa;&#x9;z M15,32.5c-2.481,0-4.5-2.019-4.5-4.5s2.019-4.5,4.5-4.5h37c2.481,0,4.5,2.019,4.5,4.5s-2.019,4.5-4.5,4.5H15z M15,19.5&#xd;&#xa;&#x9;c-2.481,0-4.5-2.019-4.5-4.5s2.019-4.5,4.5-4.5h37c2.481,0,4.5,2.019,4.5,4.5s-2.019,4.5-4.5,4.5H15z"/>
 <path stroke-opacity="0.15" fill-opacity="0.15" d="M15,18.5h37c1.925,0,3.5-1.576,3.5-3.5c0-1.926-1.575-3.5-3.5-3.5H15c-1.925,0-3.5,1.574-3.5,3.5&#xd;&#xa;&#x9;C11.5,16.924,13.075,18.5,15,18.5z M52,37.5H15c-1.925,0-3.5,1.574-3.5,3.5c0,1.924,1.575,3.5,3.5,3.5h37c1.925,0,3.5-1.576,3.5-3.5&#xd;&#xa;&#x9;C55.5,39.074,53.925,37.5,52,37.5z M52,24.5H15c-1.925,0-3.5,1.574-3.5,3.5c0,1.924,1.575,3.5,3.5,3.5h37c1.925,0,3.5-1.576,3.5-3.5&#xd;&#xa;&#x9;C55.5,26.074,53.925,24.5,52,24.5z"/>
 <linearGradient id="SVGID_1_" y1="44.5" x1="33.5005" y2="11.5005" gradientUnits="userSpaceOnUse" x2="33.5005">
  <stop offset="0" style="stop-color:#D0CBC5"/>
  <stop offset="0.5031" style="stop-color:#FAFCEF"/>
  <stop offset="0.9693" style="stop-color:#FFFFFF"/>
 </linearGradient>
 <path fill="url(#SVGID_1_)" d="M15,18.5h37c1.925,0,3.5-1.576,3.5-3.5c0-1.926-1.575-3.5-3.5-3.5H15c-1.925,0-3.5,1.574-3.5,3.5&#xd;&#xa;&#x9;C11.5,16.924,13.075,18.5,15,18.5z M52,37.5H15c-1.925,0-3.5,1.574-3.5,3.5c0,1.924,1.575,3.5,3.5,3.5h37c1.925,0,3.5-1.576,3.5-3.5&#xd;&#xa;&#x9;C55.5,39.074,53.925,37.5,52,37.5z M52,24.5H15c-1.925,0-3.5,1.574-3.5,3.5c0,1.924,1.575,3.5,3.5,3.5h37c1.925,0,3.5-1.576,3.5-3.5&#xd;&#xa;&#x9;C55.5,26.074,53.925,24.5,52,24.5z"/>
 <path fill="#FFFFFF" d="M52,37.5H15c-1.925,0-3.5,1.574-3.5,3.5c0,0.171,0.027,0.335,0.051,0.5c0.247-1.689,1.695-3,3.449-3h37&#xd;&#xa;&#x9;c1.754,0,3.203,1.311,3.449,3c0.024-0.165,0.051-0.329,0.051-0.5C55.5,39.074,53.925,37.5,52,37.5z"/>
 <path fill="#FFFFFF" d="M15,12.5h37c1.754,0,3.203,1.311,3.449,3c0.024-0.165,0.051-0.329,0.051-0.5c0-1.926-1.575-3.5-3.5-3.5H15&#xd;&#xa;&#x9;c-1.925,0-3.5,1.574-3.5,3.5c0,0.171,0.027,0.335,0.051,0.5C11.797,13.811,13.246,12.5,15,12.5z"/>
 <path fill="#FFFFFF" d="M52,24.5H15c-1.925,0-3.5,1.574-3.5,3.5c0,0.171,0.027,0.335,0.051,0.5c0.247-1.689,1.695-3,3.449-3h37&#xd;&#xa;&#x9;c1.754,0,3.203,1.311,3.449,3c0.024-0.165,0.051-0.329,0.051-0.5C55.5,26.074,53.925,24.5,52,24.5z"/>
</svg>
