<?xml version="1.0"?>
<!-- Converted with SVG Converter - Version 0.9.5 (Compiled Mon May 30 09:08:51 2011) - Copyright (C) 2011 Nokia -->
<svg xmlns="http://www.w3.org/2000/svg" width="67px" x="0px" version="1.1" y="0px" height="57px" viewBox="0 0 67 57" xmlns:xlink="http://www.w3.org/1999/xlink" baseProfile="tiny" xml:space="preserve">
 <g>
  <rect width="67" fill="none" height="57"/>
 </g>
 <g>
  <rect width="46" x="10.5" y="5.5" fill="none" height="46"/>
 </g>
 <path stroke-opacity="0.15" fill-opacity="0.15" d="M26.233,49.814c-1.577,0-2.92-0.904-3.55-1.803L11.284,31.637c-1.251-1.787-0.815-4.265,0.971-5.521&#xd;&#xa;&#x9;l2.431-1.699c0.667-0.467,1.451-0.713,2.267-0.713c1.298,0,2.514,0.63,3.253,1.686l5.975,8.583L44.936,7.187&#xd;&#xa;&#x9;C45.676,6.13,46.893,5.5,48.189,5.5c0.816,0,1.6,0.247,2.267,0.714l2.428,1.701c1.789,1.252,2.227,3.729,0.975,5.521L30.062,47.414&#xd;&#xa;&#x9;C29.148,48.941,27.775,49.814,26.233,49.814L26.233,49.814z"/>
 <path stroke-opacity="0.3" fill-opacity="0.3" d="M52.31,9.727l-2.427-1.701c-1.335-0.935-3.192-0.608-4.128,0.727l-19.578,27.96l-6.791-9.757&#xd;&#xa;&#x9;c-0.936-1.336-2.793-1.659-4.127-0.727l-2.429,1.697c-1.333,0.938-1.661,2.794-0.726,4.132L23.502,48.43&#xd;&#xa;&#x9;c0.937,1.334,3.87,2.521,5.74-0.596l23.797-33.978C53.974,12.518,53.646,10.662,52.31,9.727z"/>
 <linearGradient id="SVGID_1_" y1="48.8164" x1="32.5718" y2="6.5005" gradientUnits="userSpaceOnUse" x2="32.5718">
  <stop offset="0" style="stop-color:#D0CBC5"/>
  <stop offset="0.5031" style="stop-color:#FAFCEF"/>
  <stop offset="0.9693" style="stop-color:#FFFFFF"/>
 </linearGradient>
 <path fill="url(#SVGID_1_)" d="M52.31,8.734l-2.427-1.701c-1.335-0.935-3.192-0.608-4.128,0.727l-19.578,27.96l-6.791-9.758&#xd;&#xa;&#x9;c-0.936-1.335-2.793-1.659-4.127-0.727l-2.429,1.698c-1.333,0.938-1.661,2.794-0.726,4.132l11.397,16.371&#xd;&#xa;&#x9;c0.937,1.334,3.87,2.521,5.74-0.596l23.797-33.979C53.974,11.526,53.646,9.669,52.31,8.734z"/>
 <path fill="#FFFFFF" d="M12.83,27.926l2.429-1.697c1.334-0.933,3.191-0.609,4.127,0.727l6.791,9.757l19.578-27.96&#xd;&#xa;&#x9;c0.936-1.335,2.793-1.662,4.128-0.727l2.427,1.701c0.666,0.466,1.081,1.162,1.215,1.908c0.172-1.087-0.257-2.23-1.215-2.901&#xd;&#xa;&#x9;l-2.427-1.701c-1.335-0.935-3.192-0.608-4.128,0.727l-19.578,27.96l-6.791-9.758c-0.936-1.335-2.793-1.659-4.127-0.727l-2.429,1.698&#xd;&#xa;&#x9;c-0.955,0.672-1.384,1.814-1.212,2.902C11.751,29.09,12.166,28.394,12.83,27.926z"/>
</svg>
