<?xml version="1.0"?>
<!-- Converted with SVG Converter - Version 0.9.5 (Compiled Mon May 30 09:08:51 2011) - Copyright (C) 2011 Nokia -->
<svg xmlns="http://www.w3.org/2000/svg" width="67px" x="0px" version="1.1" y="0px" height="57px" viewBox="0 0 67 57" xmlns:xlink="http://www.w3.org/1999/xlink" baseProfile="tiny" xml:space="preserve">
 <g>
  <rect width="67" fill="none" height="57"/>
 </g>
 <g>
  <rect width="46" x="10.5" y="5.5" fill="none" height="46"/>
 </g>
 <path stroke-opacity="0.15" fill-opacity="0.15" d="M51.731,51c-1.409,0-2.733-0.547-3.729-1.541l-7.315-7.316c-3.062,1.883-6.562,2.875-10.176,2.875&#xd;&#xa;&#x9;C19.753,45.017,11,36.265,11,25.507C11,14.751,19.753,6,30.511,6c10.756,0,19.506,8.751,19.506,19.507&#xd;&#xa;&#x9;c0,3.089-0.745,6.147-2.16,8.893l7.603,7.602c2.05,2.059,2.049,5.402,0.001,7.455C54.46,50.453,53.137,51,51.731,51L51.731,51z&#xd;&#xa;&#x9; M30.511,13.696c-6.515,0-11.815,5.298-11.815,11.811c0,6.514,5.301,11.813,11.815,11.813c6.513,0,11.811-5.299,11.811-11.813&#xd;&#xa;&#x9;C42.321,18.994,37.023,13.696,30.511,13.696L30.511,13.696z"/>
 <path stroke-opacity="0.3" fill-opacity="0.3" d="M54.752,43.708l-8.13-8.127c1.52-2.684,2.395-5.777,2.395-9.075C49.017,16.302,40.712,8,30.511,8&#xd;&#xa;&#x9;C20.305,8,12,16.302,12,26.507c0,10.206,8.305,18.51,18.511,18.51c3.813,0,7.364-1.162,10.313-3.152l7.886,7.885&#xd;&#xa;&#x9;c0.834,0.834,1.927,1.25,3.022,1.25c1.091,0,2.185-0.416,3.021-1.25C56.416,48.082,56.416,45.38,54.752,43.708z M17.695,26.507&#xd;&#xa;&#x9;c0-7.063,5.747-12.811,12.815-12.811c7.064,0,12.811,5.747,12.811,12.811c0,7.065-5.746,12.813-12.811,12.813&#xd;&#xa;&#x9;C23.442,39.32,17.695,33.572,17.695,26.507z"/>
 <linearGradient id="SVGID_1_" y1="49.9995" x1="34" y2="7.0005" gradientUnits="userSpaceOnUse" x2="34">
  <stop offset="0" style="stop-color:#D0CBC5"/>
  <stop offset="0.5031" style="stop-color:#FAFCEF"/>
  <stop offset="0.9693" style="stop-color:#FFFFFF"/>
 </linearGradient>
 <path fill="url(#SVGID_1_)" d="M54.752,42.708l-8.13-8.127c1.52-2.684,2.395-5.777,2.395-9.075C49.017,15.302,40.712,7,30.511,7&#xd;&#xa;&#x9;C20.305,7,12,15.302,12,25.507c0,10.206,8.305,18.51,18.511,18.51c3.813,0,7.364-1.162,10.313-3.152l7.886,7.885&#xd;&#xa;&#x9;c0.834,0.834,1.927,1.25,3.022,1.25c1.091,0,2.185-0.416,3.021-1.25C56.416,47.082,56.416,44.38,54.752,42.708z M17.695,25.507&#xd;&#xa;&#x9;c0-7.063,5.747-12.811,12.815-12.811c7.064,0,12.811,5.747,12.811,12.811c0,7.065-5.746,12.813-12.811,12.813&#xd;&#xa;&#x9;C23.442,38.32,17.695,32.572,17.695,25.507z"/>
 <path fill="#FFFFFF" d="M49.017,25.507C49.017,15.302,40.712,7,30.511,7C20.305,7,12,15.302,12,25.507&#xd;&#xa;&#x9;c0,0.169,0.021,0.332,0.025,0.5C12.294,16.034,20.474,8,30.511,8c10.067,0,18.272,8.09,18.485,18.112&#xd;&#xa;&#x9;C49.003,25.91,49.017,25.71,49.017,25.507z M30.511,38.32c-6.899,0-12.524-5.48-12.79-12.313c-0.006,0.167-0.025,0.331-0.025,0.5&#xd;&#xa;&#x9;c0,7.065,5.747,12.813,12.815,12.813c7.064,0,12.811-5.748,12.811-12.813c0-0.169-0.019-0.333-0.025-0.5&#xd;&#xa;&#x9;C43.03,32.839,37.406,38.32,30.511,38.32z M54.752,42.708l-7.785-7.783c-0.113,0.221-0.223,0.441-0.345,0.656l8.13,8.127&#xd;&#xa;&#x9;c0.705,0.707,1.092,1.602,1.2,2.521C56.1,44.978,55.711,43.673,54.752,42.708z"/>
</svg>
