<?xml version="1.0"?>
<!-- Converted with SVG Converter - Version 0.9.5 (Compiled Mon May 30 09:08:51 2011) - Copyright (C) 2011 Nokia -->
<svg xmlns="http://www.w3.org/2000/svg" width="67px" x="0px" version="1.1" y="0px" height="57px" viewBox="0 0 67 57" xmlns:xlink="http://www.w3.org/1999/xlink" baseProfile="tiny" xml:space="preserve">
 <rect width="67" fill="none" height="57" id="BOUNDING_BOX_1_"/>
 <path stroke-opacity="0.3" fill-opacity="0.3" d="M32.508,24.508v-7c0-0.55-0.45-1-1-1h-2c-0.55,0-1,0.45-1,1v7h-7c-0.55,0-1,0.45-1,1v2c0,0.55,0.45,1,1,1h7v7&#xd;&#xa;&#x9;c0,0.55,0.45,1,1,1h2c0.55,0,1-0.45,1-1v-7h7c0.55,0,1-0.45,1-1v-2c0-0.55-0.45-1-1-1H32.508z M54.752,43.708l-8.13-8.127&#xd;&#xa;&#x9;c1.521-2.685,2.396-5.776,2.396-9.075C49.018,16.302,40.712,8,30.511,8C20.305,8,12,16.302,12,26.507&#xd;&#xa;&#x9;c0,10.206,8.305,18.511,18.511,18.511c3.813,0,7.364-1.162,10.313-3.152l7.886,7.885c0.834,0.834,1.927,1.25,3.022,1.25&#xd;&#xa;&#x9;c1.091,0,2.185-0.416,3.021-1.25C56.416,48.082,56.416,45.38,54.752,43.708z M30.51,39.32c-7.068,0-12.815-5.748-12.815-12.813&#xd;&#xa;&#x9;c0-7.063,5.747-12.811,12.815-12.811c7.064,0,12.811,5.747,12.811,12.811C43.32,33.572,37.575,39.32,30.51,39.32z"/>
 <path stroke-opacity="0.15" fill-opacity="0.15" d="M51.732,51c-1.41,0-2.734-0.548-3.729-1.543l-7.315-7.314c-3.062,1.884-6.563,2.875-10.176,2.875&#xd;&#xa;&#x9;C19.753,45.018,11,36.265,11,25.507C11,14.75,19.753,6,30.511,6c10.755,0,19.506,8.75,19.506,19.506&#xd;&#xa;&#x9;c0,3.088-0.745,6.146-2.161,8.895l7.603,7.601c2.049,2.059,2.049,5.402,0.002,7.455C54.463,50.452,53.139,51,51.732,51z&#xd;&#xa;&#x9; M30.51,13.696c-6.515,0-11.815,5.298-11.815,11.811c0,6.514,5.3,11.813,11.815,11.813c6.513,0,11.811-5.3,11.811-11.813&#xd;&#xa;&#x9;C42.32,18.994,37.022,13.696,30.51,13.696z M29.508,36.508c-1.103,0-2-0.897-2-2v-6h-6c-1.103,0-2-0.897-2-2v-2c0-1.103,0.897-2,2-2&#xd;&#xa;&#x9;h6v-6c0-1.103,0.897-2,2-2h2c1.103,0,2,0.897,2,2v6h6c1.103,0,2,0.897,2,2v2c0,1.103-0.897,2-2,2h-6v6c0,1.103-0.897,2-2,2H29.508z"/>
 <linearGradient id="SVGID_1_" y1="50" x1="34" y2="7.0005" gradientUnits="userSpaceOnUse" x2="34">
  <stop offset="0" style="stop-color:#D0CBC5"/>
  <stop offset="0.5031" style="stop-color:#FAFCEF"/>
  <stop offset="0.9693" style="stop-color:#FFFFFF"/>
 </linearGradient>
 <path fill="url(#SVGID_1_)" d="M32.508,23.508v-7c0-0.55-0.45-1-1-1h-2c-0.55,0-1,0.45-1,1v7h-7c-0.55,0-1,0.45-1,1v2&#xd;&#xa;&#x9;c0,0.55,0.45,1,1,1h7v7c0,0.55,0.45,1,1,1h2c0.55,0,1-0.45,1-1v-7h7c0.55,0,1-0.45,1-1v-2c0-0.55-0.45-1-1-1H32.508z M54.752,42.708&#xd;&#xa;&#x9;l-8.13-8.127c1.521-2.685,2.396-5.777,2.396-9.075C49.018,15.302,40.712,7,30.511,7C20.305,7,12,15.302,12,25.507&#xd;&#xa;&#x9;c0,10.206,8.305,18.511,18.511,18.511c3.813,0,7.364-1.162,10.313-3.152l7.886,7.885c0.834,0.834,1.927,1.25,3.022,1.25&#xd;&#xa;&#x9;c1.091,0,2.185-0.416,3.021-1.25C56.416,47.082,56.416,44.38,54.752,42.708z M30.51,38.32c-7.068,0-12.815-5.748-12.815-12.813&#xd;&#xa;&#x9;c0-7.063,5.747-12.811,12.815-12.811c7.064,0,12.811,5.747,12.811,12.811C43.32,32.572,37.575,38.32,30.51,38.32z"/>
 <path fill="#FFFFFF" d="M28.508,24.508v-1h-7c-0.55,0-1,0.45-1,1v1c0-0.55,0.45-1,1-1H28.508z M31.508,15.508h-2c-0.55,0-1,0.45-1,1&#xd;&#xa;&#x9;v1c0-0.55,0.45-1,1-1h2c0.55,0,1,0.45,1,1v-1C32.508,15.958,32.058,15.508,31.508,15.508z M54.752,42.708l-7.785-7.782&#xd;&#xa;&#x9;c-0.113,0.22-0.224,0.44-0.345,0.655l8.13,8.127c0.705,0.708,1.093,1.603,1.2,2.523C56.1,44.978,55.712,43.672,54.752,42.708z&#xd;&#xa;&#x9; M30.51,38.32c-6.899,0-12.524-5.48-12.79-12.313c-0.006,0.167-0.025,0.331-0.025,0.5c0,7.065,5.747,12.813,12.815,12.813&#xd;&#xa;&#x9;c7.065,0,12.811-5.748,12.811-12.813c0-0.169-0.019-0.333-0.025-0.5C43.029,32.84,37.406,38.32,30.51,38.32z M32.508,24.508h7&#xd;&#xa;&#x9;c0.55,0,1,0.45,1,1v-1c0-0.55-0.45-1-1-1h-7V24.508z M49.018,25.506C49.018,15.302,40.712,7,30.511,7C20.305,7,12,15.302,12,25.507&#xd;&#xa;&#x9;c0,0.169,0.021,0.332,0.025,0.5C12.294,16.034,20.474,8,30.511,8c10.068,0,18.273,8.09,18.487,18.111&#xd;&#xa;&#x9;C49.004,25.909,49.018,25.709,49.018,25.506z"/>
</svg>
