<?xml version="1.0" encoding="utf-8"?>
<!-- Generator: Adobe Illustrator 15.0.0, SVG Export Plug-In . SVG Version: 6.00 Build 0)  -->
<!DOCTYPE svg PUBLIC "-//W3C//DTD SVG 1.1//EN" "http://www.w3.org/Graphics/SVG/1.1/DTD/svg11.dtd">
<svg version="1.1" id="Layer_1" xmlns="http://www.w3.org/2000/svg" xmlns:xlink="http://www.w3.org/1999/xlink" x="0px" y="0px"
	 width="42px" height="42px" viewBox="0 0 42 42" enable-background="new 0 0 42 42" xml:space="preserve">
	 <!--
<linearGradient id="SVGID_1_" gradientUnits="userSpaceOnUse" x1="21.0005" y1="42" x2="21.0005" y2="4.882813e-004">

	<stop  offset="0" style="stop-color:#4D4D4D"/>
	<stop  offset="1" style="stop-color:#878787"/>
</linearGradient>
<path fill="url(#SVGID_1_)" d="M42,38.811C42,40.572,40.572,42,38.811,42H3.189C1.428,42,0,40.572,0,38.811V3.189
	C0,1.428,1.428,0,3.189,0h35.622C40.572,0,42,1.428,42,3.189V38.811z"/>
	-->
<path id="Twitter_logo" fill="#FFFFFF" d="M32.58,32.261c0,1.046-0.373,1.944-1.117,2.689c-0.9,0.734-2.151,0.998-3.615,0.98
	c-2.186,0-5.707,0.309-9.192-0.376c-1.263-0.25-3.057-1.358-3.774-1.86c-2.725-1.905-4.548-5.229-4.548-8.687V9.812
	C10.396,7.505,11.961,6.05,14.01,6c1.044,0,1.941,0.375,2.688,1.122c0.748,0.747,1.123,1.644,1.123,2.69v3.809h10.831
	c5.138,0,5.567,7.435,0,7.435H17.775v3.952c0.487,3.087,2.782,3.522,5.2,3.39c2.082,0.116,4.28,0.052,4.81,0.052
	C30.468,28.101,32.467,29.374,32.58,32.261L32.58,32.261z"/>
</svg>
